<svg width="40" height="40" viewBox="0 0 40 40" fill="none" xmlns="http://www.w3.org/2000/svg">
<g clip-path="url(#clip0_2249_77)">
<path d="M34.7376 28.575C34.1831 29.856 33.5267 31.0352 32.7663 32.1193C31.7297 33.5973 30.8809 34.6203 30.2268 35.1884C29.2129 36.1208 28.1265 36.5984 26.9631 36.6256C26.128 36.6256 25.1208 36.3879 23.9484 35.9058C22.7722 35.426 21.6912 35.1884 20.7029 35.1884C19.6663 35.1884 18.5545 35.426 17.3654 35.9058C16.1744 36.3879 15.215 36.6391 14.4815 36.664C13.3659 36.7116 12.2539 36.2204 11.144 35.1884C10.4356 34.5705 9.54953 33.5113 8.48804 32.0107C7.34915 30.4083 6.41282 28.5501 5.67928 26.4316C4.89369 24.1434 4.49988 21.9277 4.49988 19.7825C4.49988 17.3252 5.03085 15.2059 6.09437 13.4298C6.93021 12.0033 8.04217 10.878 9.43387 10.0519C10.8256 9.22576 12.3293 8.80478 13.9487 8.77785C14.8348 8.77785 15.9968 9.05194 17.4408 9.5906C18.8807 10.1311 19.8052 10.4052 20.2106 10.4052C20.5136 10.4052 21.5407 10.0847 23.2819 9.44575C24.9284 8.85322 26.3181 8.60787 27.4565 8.70452C30.5414 8.95348 32.859 10.1696 34.4004 12.3604C31.6414 14.0321 30.2766 16.3735 30.3038 19.3771C30.3287 21.7167 31.1774 23.6636 32.8455 25.2094C33.6014 25.9269 34.4456 26.4814 35.3849 26.8752C35.1812 27.466 34.9662 28.0318 34.7376 28.575ZM27.6625 0.734061C27.6625 2.56781 26.9926 4.27998 25.6572 5.86475C24.0457 7.74872 22.0966 8.83737 19.9829 8.66559C19.956 8.4456 19.9403 8.21406 19.9403 7.97075C19.9403 6.21035 20.7067 4.32638 22.0676 2.78597C22.7471 2.00604 23.6112 1.35753 24.6591 0.840209C25.7048 0.330603 26.6938 0.0487798 27.624 0.000518799C27.6512 0.245663 27.6625 0.490822 27.6625 0.734037V0.734061Z" fill="black"/>
</g>
<defs>
<clipPath id="clip0_2249_77">
<rect width="40" height="40" fill="white"/>
</clipPath>
</defs>
</svg>
