<svg width="25" height="25" viewBox="0 0 25 25" fill="none" xmlns="http://www.w3.org/2000/svg">
<path fill-rule="evenodd" clip-rule="evenodd" d="M7.70432 12.7583C7.71036 15.4734 9.86543 17.6694 12.5178 17.6632H12.4997C15.1472 17.6611 17.293 15.4647 17.295 12.7546C17.055 6.24939 7.94428 6.24939 7.70432 12.7546V12.7583ZM12.5052 9.50093C10.8461 9.50242 9.50143 10.9182 9.5 12.665C9.64949 16.8629 15.3608 16.8629 15.5 12.665C15.4986 10.9224 14.1603 9.50839 12.5052 9.50093Z" fill="#FDB022"/>
<path fill-rule="evenodd" clip-rule="evenodd" d="M0 8.33333C0 4.40496 0 2.44078 1.22039 1.22039C2.44078 0 4.40496 0 8.33333 0H16.6667C20.595 0 22.5592 0 23.7796 1.22039C25 2.44078 25 4.40496 25 8.33333V16.6667C25 20.595 25 22.5592 23.7796 23.7796C22.5592 25 20.595 25 16.6667 25H8.33333C4.40496 25 2.44078 25 1.22039 23.7796C0 22.5592 0 20.595 0 16.6667V8.33333ZM18.8728 13.1937L20.8796 14.6004C20.9251 14.6326 20.9601 14.678 20.9805 14.7306C21.0008 14.7833 21.0054 14.8409 20.9937 14.8963C20.982 14.9516 20.9546 15.0022 20.9149 15.0416C20.8752 15.081 20.8249 15.1074 20.7705 15.1176L19.04 15.3893C18.9299 15.4076 18.8239 15.446 18.727 15.5026C18.2788 15.7643 18.1226 16.3484 18.3783 16.8072L18.4474 16.9263C18.4747 16.9757 18.4871 17.0324 18.4829 17.089C18.4787 17.1457 18.4582 17.1998 18.4239 17.2445C18.3896 17.2891 18.3431 17.3224 18.2903 17.3399C18.2375 17.3575 18.1809 17.3586 18.1275 17.3431L17.4512 17.1384C17.3355 17.1018 17.2139 17.0885 17.0932 17.0994C16.5792 17.1456 16.1991 17.6096 16.2442 18.1358L16.426 20.6925C16.4311 20.7497 16.419 20.8072 16.3913 20.8572C16.3637 20.9072 16.3218 20.9475 16.2712 20.9725C16.2207 20.9976 16.1639 21.0063 16.1084 20.9975C16.0529 20.9887 16.0014 20.9628 15.9606 20.9232L14.401 19.4346C14.264 19.3094 14.0948 19.2271 13.9134 19.1978C13.3918 19.1133 12.9021 19.4775 12.8195 20.0114C12.7982 20.0635 12.7623 20.108 12.7164 20.1392C12.6705 20.1705 12.6166 20.1872 12.5614 20.1872C12.5063 20.1872 12.4523 20.1705 12.4064 20.1392C12.3605 20.108 12.3246 20.0635 12.3033 20.0114L12.1688 19.6765C12.1271 19.572 12.0677 19.4759 11.9932 19.3927C11.6459 19.0049 11.0571 18.9786 10.6782 19.3341L9.01676 20.9046C8.9754 20.9422 8.92407 20.9664 8.86926 20.9742C8.81445 20.982 8.75863 20.973 8.70883 20.9483C8.65903 20.9236 8.6175 20.8843 8.58948 20.8355C8.56146 20.7867 8.54821 20.7304 8.55139 20.6739L8.72591 18.2326C8.73238 18.1222 8.72013 18.0115 8.68968 17.9055C8.54419 17.3987 8.02489 17.1086 7.5298 17.2575C7.46226 17.2723 7.38218 17.3024 7.2979 17.3339C7.06462 17.4214 6.79926 17.5208 6.67908 17.3431C6.64352 17.2989 6.62174 17.2447 6.61656 17.1877C6.61137 17.1306 6.62302 17.0733 6.64999 17.0231C6.76654 16.8877 6.84429 16.722 6.87464 16.5443C6.96555 16.0118 6.61755 15.5047 6.09736 15.4117L4.23232 15.1177C4.17765 15.108 4.12701 15.0819 4.08684 15.0428C4.04668 15.0036 4.01878 14.9531 4.00671 14.8977C3.99463 14.8422 3.99892 14.7844 4.01902 14.7315C4.03913 14.6785 4.07415 14.6329 4.11963 14.6004L6.05742 13.2421C6.18255 13.1553 6.28483 13.0382 6.35522 12.9012C6.4256 12.7643 6.46193 12.6116 6.46097 12.4569C6.49566 11.9361 6.00624 11.62 5.59043 11.3514C5.48331 11.2822 5.38108 11.2162 5.29395 11.1506C5.24777 11.1185 5.21202 11.073 5.19129 11.02C5.17056 10.9669 5.1658 10.9088 5.17761 10.8529C5.18864 10.7967 5.2161 10.7452 5.25636 10.7053C5.29662 10.6655 5.34777 10.6391 5.40302 10.6296L7.16265 10.3431L5.6648 7.67476C5.63745 7.62532 5.62508 7.56867 5.62925 7.51202C5.63343 7.45536 5.65397 7.40126 5.68826 7.35658C5.72255 7.31191 5.76904 7.27867 5.82183 7.26111C5.87461 7.24354 5.93131 7.24244 5.98471 7.25794L7.92608 7.86825C8.03352 7.90066 8.14577 7.91303 8.25748 7.90479C8.77216 7.86679 9.1593 7.40888 9.12218 6.88203L9.04585 5.88096C9.04257 5.82479 9.05553 5.76888 9.08309 5.7202C9.11066 5.67152 9.15162 5.63222 9.20086 5.60721C9.2501 5.58221 9.30545 5.5726 9.35999 5.57958C9.41453 5.58656 9.46586 5.60983 9.50757 5.64648L10.1074 6.23076C10.1913 6.30693 10.2878 6.36695 10.3925 6.40794C10.8726 6.59599 11.4107 6.35006 11.5944 5.85863L12.2415 4.17652C12.2628 4.12446 12.2987 4.08001 12.3446 4.04875C12.3906 4.01749 12.4445 4.00081 12.4996 4.00081C12.5548 4.00081 12.6087 4.01749 12.6546 4.04875C12.7005 4.08001 12.7364 4.12446 12.7577 4.17652L13.3722 5.76938C13.4148 5.87701 13.4761 5.97582 13.5532 6.06096C13.9042 6.44822 14.4953 6.47095 14.8737 6.11174L15.4044 5.59819C15.4454 5.55958 15.4968 5.53438 15.5518 5.5258C15.6069 5.51723 15.6632 5.52567 15.7136 5.55005C15.764 5.57442 15.8061 5.61363 15.8346 5.66264C15.863 5.71166 15.8766 5.76825 15.8734 5.82519L15.8044 6.91932C15.7981 7.03011 15.8108 7.14116 15.8419 7.24747C15.9893 7.7515 16.508 8.03778 17.0005 7.88688L19.0109 7.25794C19.0646 7.2414 19.1218 7.24173 19.1753 7.25886C19.2287 7.27599 19.2759 7.30914 19.3108 7.35403C19.3456 7.39892 19.3665 7.45348 19.3708 7.51065C19.375 7.56782 19.3624 7.62498 19.3345 7.67473L18.5601 9.04796C18.505 9.14825 18.468 9.2579 18.451 9.37163C18.3727 9.89371 18.7226 10.3819 19.2327 10.4621L19.5963 10.5142C19.6512 10.5233 19.7023 10.5489 19.7429 10.5879C19.7835 10.6268 19.8119 10.6773 19.8244 10.7328C19.8369 10.7883 19.8329 10.8464 19.813 10.8996C19.7931 10.9528 19.7581 10.9987 19.7126 11.0315L18.8728 11.6306C18.7855 11.6937 18.7095 11.7715 18.6479 11.8608C18.3505 12.2924 18.4511 12.8892 18.8728 13.1937Z" fill="#FDB022"/>
</svg>
