<svg width="40" height="40" viewBox="0 0 40 40" fill="none" xmlns="http://www.w3.org/2000/svg">
<g clip-path="url(#clip0_2249_149)">
<path d="M40 20.0001C40 8.95442 31.0457 0.00012207 20 0.00012207C8.9543 0.00012207 0 8.95442 0 20.0001C0 29.9825 7.31367 38.2568 16.875 39.7572V25.7814H11.7969V20.0001H16.875V15.5939C16.875 10.5814 19.8609 7.81262 24.4293 7.81262C26.6168 7.81262 28.9062 8.20325 28.9062 8.20325V13.1251H26.3844C23.9 13.1251 23.125 14.6669 23.125 16.2501V20.0001H28.6719L27.7852 25.7814H23.125V39.7572C32.6863 38.2568 40 29.9825 40 20.0001Z" fill="#1877F2"/>
<path d="M27.7852 25.7814L28.6719 20.0001H23.125V16.2501C23.125 14.6685 23.9 13.1251 26.3844 13.1251H28.9062V8.20325C28.9062 8.20325 26.6176 7.81262 24.4293 7.81262C19.8609 7.81262 16.875 10.5814 16.875 15.5939V20.0001H11.7969V25.7814H16.875V39.7572C18.9457 40.0811 21.0543 40.0811 23.125 39.7572V25.7814H27.7852Z" fill="white"/>
</g>
<defs>
<clipPath id="clip0_2249_149">
<rect width="40" height="40" fill="white"/>
</clipPath>
</defs>
</svg>
