<svg width="25" height="26" viewBox="0 0 25 26" fill="none" xmlns="http://www.w3.org/2000/svg">
<path fill-rule="evenodd" clip-rule="evenodd" d="M1.22039 1.72039C0 2.94078 0 4.90496 0 8.83333V17.1667C0 21.095 0 23.0592 1.22039 24.2796C2.44078 25.5 4.40496 25.5 8.33333 25.5H16.6667C20.595 25.5 22.5592 25.5 23.7796 24.2796C25 23.0592 25 21.095 25 17.1667V8.83333C25 4.90496 25 2.94078 23.7796 1.72039C22.5592 0.5 20.595 0.5 16.6667 0.5H8.33333C4.40496 0.5 2.44078 0.5 1.22039 1.72039ZM14.4844 17.1002C15.2631 18.5562 15.1751 19.9117 14.2204 21.1667C18.4614 19.2048 19.9748 15.8244 17.3995 12.8952C16.9616 12.447 16.5404 12.0647 16.1445 11.7053C14.3846 10.1078 13.1247 8.96412 13.1103 4.5C10.2305 6.96403 9.25436 9.94573 10.1821 13.4451C9.33101 13.2274 8.79483 12.6408 8.57362 11.6854C5.00644 15.6402 5.70757 18.7929 10.677 21.1437C9.47987 19.8574 9.46612 18.7026 10.6357 17.6793C11.4848 16.9358 11.9247 15.7505 11.9555 14.1233C13.3838 15.6988 13.8306 17.1652 13.2959 18.5225C13.8717 18.3555 14.2678 17.8814 14.4844 17.1002Z" fill="#FDB93E"/>
</svg>
