<svg width="40" height="40" viewBox="0 0 40 40" fill="none" xmlns="http://www.w3.org/2000/svg">
<g clip-path="url(#clip0_2249_139)">
<path d="M39.6101 20.4608C39.6101 19.1013 39.4998 17.7344 39.2647 16.3969H20.4V24.0985H31.2029C30.7546 26.5825 29.3142 28.7798 27.2051 30.1761V35.1733H33.6501C37.4348 31.6899 39.6101 26.5457 39.6101 20.4608Z" fill="#4285F4"/>
<path d="M20.4 40.0015C25.7941 40.0015 30.343 38.2304 33.6574 35.1733L27.2124 30.176C25.4193 31.3959 23.1044 32.0867 20.4073 32.0867C15.1896 32.0867 10.7656 28.5666 9.17821 23.8339H2.52747V28.9855C5.92265 35.7391 12.838 40.0015 20.4 40.0015Z" fill="#34A853"/>
<path d="M9.17092 23.8339C8.33315 21.35 8.33315 18.6603 9.17092 16.1764V11.0248H2.52753C-0.309143 16.6761 -0.309143 23.3342 2.52753 28.9855L9.17092 23.8339Z" fill="#FBBC04"/>
<path d="M20.4 7.91622C23.2513 7.87213 26.0072 8.94507 28.0722 10.9146L33.7823 5.20448C30.1666 1.8093 25.3678 -0.0573213 20.4 0.00146985C12.838 0.00146985 5.92265 4.26382 2.52747 11.0248L9.17086 16.1764C10.7509 11.4363 15.1823 7.91622 20.4 7.91622Z" fill="#EA4335"/>
</g>
<defs>
<clipPath id="clip0_2249_139">
<rect width="40" height="40" fill="white"/>
</clipPath>
</defs>
</svg>
