<svg width="25" height="25" viewBox="0 0 25 25" fill="none" xmlns="http://www.w3.org/2000/svg">
<path d="M16.3258 17.9819L18.0945 16.2132C18.4147 15.893 18.8363 15.6941 19.2871 15.6505C19.7378 15.607 20.1896 15.7215 20.5652 15.9745L24.1394 18.3819C25.1582 19.0683 25.298 20.5132 24.4297 21.3815L22.268 23.5429L22.2719 23.5468C15.1812 30.637 -5.63789 9.81748 1.45273 2.72725L1.45664 2.73115L3.61797 0.569435C4.48633 -0.298924 5.93125 -0.159471 6.61719 0.859279L9.025 4.4335C9.27808 4.80911 9.39267 5.26105 9.34913 5.71188C9.30559 6.1627 9.10662 6.58436 8.78633 6.90459L7.01758 8.67334C5.34179 10.3487 14.6504 19.6573 16.3258 17.9819ZM24.2211 11.994C24.6184 8.88272 23.5793 5.83154 21.3703 3.62217C19.1644 1.41709 16.1184 0.379982 13.0051 0.778419C12.7316 0.813576 12.5375 1.06397 12.5727 1.33779C12.6066 1.61201 12.8617 1.79873 13.132 1.77061C15.923 1.41201 18.6769 2.34443 20.6633 4.3292C22.6516 6.31787 23.5871 9.06553 23.2289 11.8671C23.2165 11.9965 23.2549 12.1256 23.336 12.2271C23.4172 12.3287 23.5346 12.3947 23.6635 12.4112C23.7924 12.4276 23.9227 12.3933 24.0267 12.3155C24.1308 12.2376 24.2005 12.1224 24.2211 11.994ZM21.434 11.6308C21.7328 9.43272 20.968 7.1792 19.3898 5.60225C17.8156 4.02803 15.5676 3.26748 13.3695 3.56514C13.0961 3.60264 12.9047 3.8542 12.9418 4.12764C12.9789 4.40186 13.2355 4.5874 13.5043 4.55615C15.3957 4.30029 17.3293 4.95459 18.6828 6.30928C20.0617 7.68701 20.7035 9.57764 20.4437 11.4956C20.4323 11.5618 20.4343 11.6296 20.4497 11.695C20.4651 11.7604 20.4934 11.822 20.5331 11.8762C20.5728 11.9303 20.623 11.976 20.6807 12.0103C20.7384 12.0447 20.8025 12.067 20.869 12.0761C20.9356 12.0852 21.0033 12.0807 21.0681 12.063C21.1329 12.0454 21.1934 12.0148 21.2462 11.9732C21.2989 11.9316 21.3427 11.8798 21.375 11.8209C21.4072 11.762 21.4273 11.6976 21.434 11.6308ZM18.6547 11.269C18.7478 10.6001 18.6838 9.91859 18.4679 9.27861C18.2519 8.63864 17.8899 8.05774 17.4105 7.58194C16.9349 7.10244 16.3541 6.74028 15.7142 6.52413C15.0743 6.30798 14.3928 6.24379 13.7238 6.33662C13.4504 6.37295 13.2582 6.62451 13.2953 6.89834C13.3138 7.02929 13.383 7.14774 13.488 7.22813C13.593 7.30851 13.7254 7.34439 13.8566 7.32803C14.3732 7.25639 14.8993 7.30591 15.3934 7.47269C15.8875 7.63947 16.336 7.91893 16.7035 8.28897C17.0735 8.65641 17.3529 9.10487 17.5196 9.59889C17.6864 10.0929 17.736 10.619 17.6644 11.1355C17.6553 11.2006 17.6591 11.267 17.6757 11.3307C17.6923 11.3944 17.7213 11.4542 17.7611 11.5067C17.8009 11.5591 17.8506 11.6032 17.9075 11.6364C17.9643 11.6695 18.0272 11.6911 18.0924 11.6999C18.1577 11.7087 18.224 11.7046 18.2876 11.6876C18.3512 11.6707 18.4109 11.6414 18.4631 11.6014C18.5154 11.5613 18.5592 11.5114 18.5921 11.4543C18.6249 11.3973 18.6462 11.3343 18.6547 11.269Z" fill="#101828"/>
</svg>
