<svg width="25" height="25" viewBox="0 0 25 25" fill="none" xmlns="http://www.w3.org/2000/svg">
<path fill-rule="evenodd" clip-rule="evenodd" d="M1.22039 1.22039C0 2.44078 0 4.40496 0 8.33333V16.6667C0 20.595 0 22.5592 1.22039 23.7796C2.44078 25 4.40496 25 8.33333 25H16.6667C20.595 25 22.5592 25 23.7796 23.7796C25 22.5592 25 20.595 25 16.6667V8.33333C25 4.40496 25 2.44078 23.7796 1.22039C22.5592 0 20.595 0 16.6667 0H8.33333C4.40496 0 2.44078 0 1.22039 1.22039ZM15.5 11.75L14.25 12.25L13.75 14.25L13.25 12.25L12 11.75L13.25 11.25L13.75 9.25L14.25 11.25L15.5 11.75ZM17.25 7.25L16.375 7.625L16 8.75L15.625 7.625L14.75 7.25L15.625 6.875L16 5.75L16.375 6.875L17.25 7.25ZM20.25 13.25L19.375 13.625L19 14.75L18.625 13.625L17.75 13.25L18.625 12.875L19 11.75L19.375 12.875L20.25 13.25ZM17.25 17C15.9522 17.0003 14.6819 16.6264 13.5912 15.9231C12.5006 15.2198 11.6358 14.2169 11.1006 13.0346C10.5655 11.8523 10.3825 10.5408 10.5738 9.25722C10.7651 7.97362 11.3224 6.7724 12.179 5.7975C10.9529 5.93711 9.78275 6.38736 8.77932 7.10563C7.77589 7.82389 6.9724 8.78638 6.44493 9.90198C6.39164 10.0147 6.34134 10.1286 6.29407 10.2435C5.96912 11.0328 5.78573 11.8744 5.75348 12.7296C5.71593 13.7255 5.88417 14.7184 6.24767 15.6463C6.61118 16.5742 7.16214 17.4172 7.86614 18.1226C8.57014 18.828 9.41205 19.3806 10.3393 19.7459C10.7896 19.9233 11.2553 20.0547 11.7294 20.1389C12.1922 20.2212 12.6637 20.2587 13.1373 20.2496C14.3711 20.2261 15.5785 19.8881 16.6451 19.2675C17.7117 18.647 18.6023 17.7645 19.2325 16.7035C18.5901 16.9005 17.9219 17.0005 17.25 17Z" fill="#475467"/>
</svg>
