<svg width="25" height="25" viewBox="0 0 25 25" fill="none" xmlns="http://www.w3.org/2000/svg">
<path fill-rule="evenodd" clip-rule="evenodd" d="M0 8.33333C0 4.40496 0 2.44078 1.22039 1.22039C2.44078 0 4.40496 0 8.33333 0H16.6667C20.595 0 22.5592 0 23.7796 1.22039C25 2.44078 25 4.40496 25 8.33333V16.6667C25 20.595 25 22.5592 23.7796 23.7796C22.5592 25 20.595 25 16.6667 25H8.33333C4.40496 25 2.44078 25 1.22039 23.7796C0 22.5592 0 20.595 0 16.6667V8.33333ZM17 16.3668C17 18.9397 14.9737 20.998 12.5 20.998C10.0263 20.998 8 18.9397 8 16.3668C8 13.7939 12.5 7.99805 12.5 7.99805C12.5 7.99805 17 13.821 17 16.3668ZM12.5 6.03516C13.0523 6.03516 13.5 5.58744 13.5 5.03516C13.5 4.48287 13.0523 4.03516 12.5 4.03516C11.9477 4.03516 11.5 4.48287 11.5 5.03516C11.5 5.58744 11.9477 6.03516 12.5 6.03516Z" fill="#2E90FA"/>
</svg>
